<svg width="67" height="64" viewBox="0 0 67 64" fill="none" xmlns="http://www.w3.org/2000/svg">
<path d="M22.104 34.04L20.076 36.056L33.972 49.964L36 47.936L22.104 34.028V34.04ZM2.016 14L0 16.028L13.896 29.924L15.912 27.908L2.016 14ZM33.948 14.024L20.076 27.944L22.092 29.96L35.976 16.04L33.948 14.024ZM13.932 34.064L0.0479999 47.984L2.064 50L15.96 36.08L13.932 34.064Z" fill="#457DE5" fill-opacity="0.898039"/>
<path d="M53.118 14.36C56.61 14.36 59.382 15.296 61.434 17.168C63.522 19.04 64.566 21.614 64.566 24.89C64.566 28.166 63.522 30.74 61.434 32.612C59.382 34.484 56.61 35.42 53.118 35.42H44.694V50H41.67V14.36H53.118ZM52.686 32.558C55.602 32.558 57.78 31.91 59.22 30.614C60.66 29.282 61.38 27.374 61.38 24.89C61.38 22.406 60.66 20.498 59.22 19.166C57.78 17.834 55.602 17.168 52.686 17.168H44.694V32.558H52.686Z" fill="#457DE5"/>
</svg>
