<svg width="124" height="42" viewBox="0 0 124 42" fill="none" xmlns="http://www.w3.org/2000/svg">
<path d="M14.736 22.36L13.384 23.704L22.648 32.976L24 31.624L14.736 22.352V22.36ZM1.344 9L0 10.352L9.264 19.616L10.608 18.272L1.344 9ZM22.632 9.016L13.384 18.296L14.728 19.64L23.984 10.36L22.632 9.016ZM9.288 22.376L0.0319999 31.656L1.376 33L10.64 23.72L9.288 22.376Z" fill="#457DE5" fill-opacity="0.898039"/>
<path d="M35.412 9.24C37.74 9.24 39.588 9.864 40.956 11.112C42.348 12.36 43.044 14.076 43.044 16.26C43.044 18.444 42.348 20.16 40.956 21.408C39.588 22.656 37.74 23.28 35.412 23.28H29.796V33H27.78V9.24H35.412ZM35.124 21.372C37.068 21.372 38.52 20.94 39.48 20.076C40.44 19.188 40.92 17.916 40.92 16.26C40.92 14.604 40.44 13.332 39.48 12.444C38.52 11.556 37.068 11.112 35.124 11.112H29.796V21.372H35.124Z" fill="#457DE5" fill-opacity="0.898039"/>
<path d="M64.296 11.112H50.796V19.968H61.452V21.876H50.796V33H48.78V9.24H64.296V11.112ZM73.8217 33.36C72.2137 33.36 70.7857 32.988 69.5377 32.244C68.3137 31.5 67.3417 30.432 66.6217 29.04C65.9257 27.624 65.5777 25.944 65.5777 24C65.5777 22.056 65.9257 20.388 66.6217 18.996C67.3177 17.58 68.2657 16.5 69.4657 15.756C70.6897 15.012 72.0697 14.64 73.6057 14.64C75.1897 14.64 76.5337 15 77.6377 15.72C78.7417 16.44 79.5817 17.436 80.1577 18.708C80.7577 19.98 81.0577 21.444 81.0577 23.1C81.0577 23.388 81.0457 23.64 81.0217 23.856C81.0217 24.072 81.0097 24.264 80.9857 24.432H66.8737V22.632H80.0857L79.0777 22.92C79.0777 21.552 78.8497 20.388 78.3937 19.428C77.9377 18.468 77.3017 17.724 76.4857 17.196C75.6697 16.668 74.6977 16.404 73.5697 16.404C72.3937 16.404 71.3497 16.716 70.4377 17.34C69.5257 17.94 68.8177 18.804 68.3137 19.932C67.8097 21.06 67.5577 22.416 67.5577 24C67.5577 25.584 67.8217 26.94 68.3497 28.068C68.8777 29.196 69.6097 30.072 70.5457 30.696C71.4817 31.296 72.5617 31.596 73.7857 31.596C75.0577 31.596 76.1497 31.308 77.0617 30.732C77.9737 30.132 78.6817 29.328 79.1857 28.32L80.8057 29.256C80.3737 30.096 79.8097 30.828 79.1137 31.452C78.4417 32.052 77.6617 32.52 76.7737 32.856C75.8857 33.192 74.9017 33.36 73.8217 33.36ZM93.2631 33.36C91.6551 33.36 90.2271 32.988 88.9791 32.244C87.7551 31.5 86.7831 30.432 86.0631 29.04C85.3671 27.624 85.0191 25.944 85.0191 24C85.0191 22.056 85.3671 20.388 86.0631 18.996C86.7591 17.58 87.7071 16.5 88.9071 15.756C90.1311 15.012 91.5111 14.64 93.0471 14.64C94.6311 14.64 95.9751 15 97.0791 15.72C98.1831 16.44 99.0231 17.436 99.5991 18.708C100.199 19.98 100.499 21.444 100.499 23.1C100.499 23.388 100.487 23.64 100.463 23.856C100.463 24.072 100.451 24.264 100.427 24.432H86.3151V22.632H99.5271L98.5191 22.92C98.5191 21.552 98.2911 20.388 97.8351 19.428C97.3791 18.468 96.7431 17.724 95.9271 17.196C95.1111 16.668 94.1391 16.404 93.0111 16.404C91.8351 16.404 90.7911 16.716 89.8791 17.34C88.9671 17.94 88.2591 18.804 87.7551 19.932C87.2511 21.06 86.9991 22.416 86.9991 24C86.9991 25.584 87.2631 26.94 87.7911 28.068C88.3191 29.196 89.0511 30.072 89.9871 30.696C90.9231 31.296 92.0031 31.596 93.2271 31.596C94.4991 31.596 95.5911 31.308 96.5031 30.732C97.4151 30.132 98.1231 29.328 98.6271 28.32L100.247 29.256C99.8151 30.096 99.2511 30.828 98.5551 31.452C97.8831 32.052 97.1031 32.52 96.2151 32.856C95.3271 33.192 94.3431 33.36 93.2631 33.36ZM112.344 33.36C110.88 33.36 109.548 32.988 108.348 32.244C107.172 31.5 106.236 30.432 105.54 29.04C104.868 27.624 104.532 25.944 104.532 24C104.532 22.008 104.88 20.316 105.576 18.924C106.296 17.532 107.256 16.476 108.456 15.756C109.68 15.012 111.024 14.64 112.488 14.64C114.024 14.64 115.356 15.072 116.484 15.936C117.612 16.8 118.356 17.988 118.716 19.5L118.5 19.68V6.72H120.516V33H118.716L118.536 28.14L118.788 28.032C118.62 29.16 118.212 30.12 117.564 30.912C116.94 31.704 116.172 32.316 115.26 32.748C114.348 33.156 113.376 33.36 112.344 33.36ZM112.56 31.596C113.712 31.596 114.732 31.284 115.62 30.66C116.532 30.036 117.24 29.136 117.744 27.96C118.248 26.784 118.5 25.416 118.5 23.856C118.5 22.296 118.248 20.964 117.744 19.86C117.24 18.756 116.544 17.904 115.656 17.304C114.792 16.704 113.796 16.404 112.668 16.404C110.772 16.404 109.272 17.088 108.168 18.456C107.088 19.824 106.548 21.672 106.548 24C106.548 26.328 107.088 28.176 108.168 29.544C109.248 30.912 110.712 31.596 112.56 31.596Z" fill="#F1F1F1"/>
</svg>
